<svg xmlns="http://www.w3.org/2000/svg" width="1417.117" height="684.85" viewBox="0 0 1417.117 684.85"><defs><style>.a{fill:#fff;stroke:#fff;}</style></defs><g transform="translate(-386.756 -248.202)"><path class="a" d="M471.74,465.627s-.725-15.05-10.758-15.236c0,0,10.405.186,10.758-16.165,0,0,.762,15.979,11.353,16.165C483.093,450.391,471.945,450.928,471.74,465.627Z" transform="translate(41 -30.599)"/><path class="a" d="M471.74,465.627s-.725-15.05-10.758-15.236c0,0,10.405.186,10.758-16.165,0,0,.762,15.979,11.353,16.165C483.093,450.391,471.945,450.928,471.74,465.627Z" transform="translate(635.88 330.734)"/><path class="a" d="M471.74,465.627s-.725-15.05-10.758-15.236c0,0,10.405.186,10.758-16.165,0,0,.762,15.979,11.353,16.165C483.093,450.391,471.945,450.928,471.74,465.627Z" transform="translate(1229.648 -91.599)"/><path class="a" d="M471.74,465.627s-.725-15.05-10.758-15.236c0,0,10.405.186,10.758-16.165,0,0,.762,15.979,11.353,16.165C483.093,450.391,471.945,450.928,471.74,465.627Z" transform="translate(423.108 -140)"/><path class="a" d="M471.74,465.627s-.725-15.05-10.758-15.236c0,0,10.405.186,10.758-16.165,0,0,.762,15.979,11.353,16.165C483.093,450.391,471.945,450.928,471.74,465.627Z" transform="translate(131.784 113.998)"/><path class="a" d="M471.74,465.627s-.725-15.05-10.758-15.236c0,0,10.405.186,10.758-16.165,0,0,.762,15.979,11.353,16.165C483.093,450.391,471.945,450.928,471.74,465.627Z" transform="translate(931.769 -154.599)"/><path class="a" d="M471.74,465.627s-.725-15.05-10.758-15.236c0,0,10.405.186,10.758-16.165,0,0,.762,15.979,11.353,16.165C483.093,450.391,471.945,450.928,471.74,465.627Z" transform="translate(1094.648 66.896)"/><path class="a" d="M471.74,465.627s-.725-15.05-10.758-15.236c0,0,10.405.186,10.758-16.165,0,0,.762,15.979,11.353,16.165C483.093,450.391,471.945,450.928,471.74,465.627Z" transform="translate(-22 290.432)"/><path class="a" d="M471.74,465.627s-.725-15.05-10.758-15.236c0,0,10.405.186,10.758-16.165,0,0,.762,15.979,11.353,16.165C483.093,450.391,471.945,450.928,471.74,465.627Z" transform="translate(341.757 362.135)"/><path class="a" d="M471.74,465.627s-.725-15.05-10.758-15.236c0,0,10.405.186,10.758-16.165,0,0,.762,15.979,11.353,16.165C483.093,450.391,471.945,450.928,471.74,465.627Z" transform="translate(735.212 436)"/><path class="a" d="M471.74,465.627s-.725-15.05-10.758-15.236c0,0,10.405.186,10.758-16.165,0,0,.762,15.979,11.353,16.165C483.093,450.391,471.945,450.928,471.74,465.627Z" transform="translate(1165.648 277.135)"/><path class="a" d="M471.74,465.627s-.725-15.05-10.758-15.236c0,0,10.405.186,10.758-16.165,0,0,.762,15.979,11.353,16.165C483.093,450.391,471.945,450.928,471.74,465.627Z" transform="translate(953.88 245.734)"/><path class="a" d="M471.74,465.627s-.725-15.05-10.758-15.236c0,0,10.405.186,10.758-16.165,0,0,.762,15.979,11.353,16.165C483.093,450.391,471.945,450.928,471.74,465.627Z" transform="translate(185.757 436)"/><path class="a" d="M471.74,465.627s-.725-15.05-10.758-15.236c0,0,10.405.186,10.758-16.165,0,0,.762,15.979,11.353,16.165C483.093,450.391,471.945,450.928,471.74,465.627Z" transform="translate(671.757 -186)"/><path class="a" d="M471.74,465.627s-.725-15.05-10.758-15.236c0,0,10.405.186,10.758-16.165,0,0,.762,15.979,11.353,16.165C483.093,450.391,471.945,450.928,471.74,465.627Z" transform="translate(975.99 467.401)"/><path class="a" d="M471.74,465.627s-.725-15.05-10.758-15.236c0,0,10.405.186,10.758-16.165,0,0,.762,15.979,11.353,16.165C483.093,450.391,471.945,450.928,471.74,465.627Z" transform="translate(1320.757 230.034)"/><path class="a" d="M471.74,465.627s-.725-15.05-10.758-15.236c0,0,10.405.186,10.758-16.165,0,0,.762,15.979,11.353,16.165C483.093,450.391,471.945,450.928,471.74,465.627Z" transform="translate(-74.216 35.495)"/></g></svg>